<?xml version="1.0" encoding="UTF-8" standalone="no"?><svg xmlns="http://www.w3.org/2000/svg" xmlns:xlink="http://www.w3.org/1999/xlink" contentStyleType="text/css" height="739px" preserveAspectRatio="none" style="width:1722px;height:739px;background:#FFFFFF;" version="1.1" viewBox="0 0 1722 739" width="1722px" zoomAndPan="magnify"><defs/><g><!--MD5=[76bd3a9713e26e8431a74ecf4a202b96]
cluster TeamWinning--><g id="cluster_TeamWinning"><rect height="355" rx="12.5" ry="12.5" style="stroke:#181818;stroke-width:0.5;fill:none;" width="506" x="7" y="184"/><rect height="326.7031" rx="12.5" ry="12.5" style="stroke:#00000000;stroke-width:1.0;fill:none;" width="504" x="8" y="211.2969"/><line style="stroke:#181818;stroke-width:0.5;fill:none;" x1="7" x2="513" y1="210.2969" y2="210.2969"/><text fill="#000000" font-family="sans-serif" font-size="14" lengthAdjust="spacing" textLength="94" x="213" y="200.9951">TeamWinning</text></g><!--MD5=[9c29d8de462e499524272ee5db8ec21c]
cluster TeamLosing--><g id="cluster_TeamLosing"><rect height="355" rx="12.5" ry="12.5" style="stroke:#181818;stroke-width:0.5;fill:none;" width="516" x="1155" y="184"/><rect height="326.7031" rx="12.5" ry="12.5" style="stroke:#00000000;stroke-width:1.0;fill:none;" width="514" x="1156" y="211.2969"/><line style="stroke:#181818;stroke-width:0.5;fill:none;" x1="1155" x2="1671" y1="210.2969" y2="210.2969"/><text fill="#000000" font-family="sans-serif" font-size="14" lengthAdjust="spacing" textLength="84" x="1371" y="200.9951">TeamLosing</text></g><g id="TeamWinning.TeamLeadByOne"><rect fill="#F1F1F1" height="50" rx="12.5" ry="12.5" style="stroke:#181818;stroke-width:0.5;" width="138" x="312" y="219"/><line style="stroke:#181818;stroke-width:0.5;" x1="312" x2="450" y1="245.2969" y2="245.2969"/><text fill="#000000" font-family="sans-serif" font-size="14" lengthAdjust="spacing" textLength="118" x="322" y="236.9951">TeamLeadByOne</text></g><g id="TeamWinning.TeamExtendingLead"><rect fill="#F1F1F1" height="50" rx="12.5" ry="12.5" style="stroke:#181818;stroke-width:0.5;" width="161" x="224.5" y="346"/><line style="stroke:#181818;stroke-width:0.5;" x1="224.5" x2="385.5" y1="372.2969" y2="372.2969"/><text fill="#000000" font-family="sans-serif" font-size="14" lengthAdjust="spacing" textLength="141" x="234.5" y="363.9951">TeamExtendingLead</text></g><g id="TeamWinning.TeamLosingLead"><rect fill="#F1F1F1" height="50" rx="12.5" ry="12.5" style="stroke:#181818;stroke-width:0.5;" width="137" x="78.5" y="473"/><line style="stroke:#181818;stroke-width:0.5;" x1="78.5" x2="215.5" y1="499.2969" y2="499.2969"/><text fill="#000000" font-family="sans-serif" font-size="14" lengthAdjust="spacing" textLength="117" x="88.5" y="490.9951">TeamLosingLead</text></g><g id="TeamLosing.TeamDeficitOfOne"><rect fill="#F1F1F1" height="50" rx="12.5" ry="12.5" style="stroke:#181818;stroke-width:0.5;" width="146" x="1276" y="219"/><line style="stroke:#181818;stroke-width:0.5;" x1="1276" x2="1422" y1="245.2969" y2="245.2969"/><text fill="#000000" font-family="sans-serif" font-size="14" lengthAdjust="spacing" textLength="126" x="1286" y="236.9951">TeamDeficitOfOne</text></g><g id="TeamLosing.TeamExtendingDeficit"><rect fill="#F1F1F1" height="50" rx="12.5" ry="12.5" style="stroke:#181818;stroke-width:0.5;" width="171" x="1171.5" y="346"/><line style="stroke:#181818;stroke-width:0.5;" x1="1171.5" x2="1342.5" y1="372.2969" y2="372.2969"/><text fill="#000000" font-family="sans-serif" font-size="14" lengthAdjust="spacing" textLength="151" x="1181.5" y="363.9951">TeamExtendingDeficit</text></g><g id="TeamLosing.TeamLosingDeficit"><rect fill="#F1F1F1" height="50" rx="12.5" ry="12.5" style="stroke:#181818;stroke-width:0.5;" width="147" x="1245.5" y="473"/><line style="stroke:#181818;stroke-width:0.5;" x1="1245.5" x2="1392.5" y1="499.2969" y2="499.2969"/><text fill="#000000" font-family="sans-serif" font-size="14" lengthAdjust="spacing" textLength="127" x="1255.5" y="490.9951">TeamLosingDeficit</text></g><ellipse cx="841" cy="16" fill="#222222" rx="10" ry="10" style="stroke:none;stroke-width:1.0;"/><g id="Scheduled"><rect fill="#F1F1F1" height="50" rx="12.5" ry="12.5" style="stroke:#181818;stroke-width:0.5;" width="94" x="794" y="87"/><line style="stroke:#181818;stroke-width:0.5;" x1="794" x2="888" y1="113.2969" y2="113.2969"/><text fill="#000000" font-family="sans-serif" font-size="14" lengthAdjust="spacing" textLength="74" x="804" y="104.9951">Scheduled</text></g><g id="In_play"><rect fill="#F1F1F1" height="50" rx="12.5" ry="12.5" style="stroke:#181818;stroke-width:0.5;" width="66" x="808" y="219"/><line style="stroke:#181818;stroke-width:0.5;" x1="808" x2="874" y1="245.2969" y2="245.2969"/><text fill="#000000" font-family="sans-serif" font-size="14" lengthAdjust="spacing" textLength="46" x="818" y="236.9951">In_play</text></g><g id="Drawing"><rect fill="#F1F1F1" height="50" rx="12.5" ry="12.5" style="stroke:#181818;stroke-width:0.5;" width="76" x="803" y="346"/><line style="stroke:#181818;stroke-width:0.5;" x1="803" x2="879" y1="372.2969" y2="372.2969"/><text fill="#000000" font-family="sans-serif" font-size="14" lengthAdjust="spacing" textLength="56" x="813" y="363.9951">Drawing</text></g><g id="Finished"><rect fill="#F1F1F1" height="50" rx="12.5" ry="12.5" style="stroke:#181818;stroke-width:0.5;" width="78" x="802" y="602"/><line style="stroke:#181818;stroke-width:0.5;" x1="802" x2="880" y1="628.2969" y2="628.2969"/><text fill="#000000" font-family="sans-serif" font-size="14" lengthAdjust="spacing" textLength="58" x="812" y="619.9951">Finished</text></g><ellipse cx="841" cy="723" fill="none" rx="10" ry="10" style="stroke:#222222;stroke-width:1.0;"/><ellipse cx="841.5" cy="723.5" fill="#222222" rx="6" ry="6" style="stroke:none;stroke-width:1.0;"/><!--MD5=[20da75546fbd4a28f0d1e35b8dc7a7d6]
link *start to Scheduled--><g id="link_*start_Scheduled"><path d="M841,26.01 C841,38.7 841,62.41 841,81.57 " fill="none" id="*start-to-Scheduled" style="stroke:#181818;stroke-width:1.0;"/><polygon fill="#181818" points="841,86.84,845,77.84,841,81.84,837,77.84,841,86.84" style="stroke:#181818;stroke-width:1.0;"/></g><!--MD5=[3930b5e0aecd1202faa5ffb4d95ea778]
link Scheduled to In_play--><g id="link_Scheduled_In_play"><path d="M841,137.15 C841,158.86 841,190.79 841,213.9 " fill="none" id="Scheduled-to-In_play" style="stroke:#181818;stroke-width:1.0;"/><polygon fill="#181818" points="841,218.98,845,209.98,841,213.98,837,209.98,841,218.98" style="stroke:#181818;stroke-width:1.0;"/></g><!--MD5=[b8de1fd22f908886c8fedda043274ed4]
link In_play to Drawing--><g id="link_In_play_Drawing"><path d="M839.13,269.31 C838.29,283.02 837.57,300.46 838,316 C838.22,323.93 838.62,332.51 839.06,340.44 " fill="none" id="In_play-to-Drawing" style="stroke:#181818;stroke-width:1.0;"/><polygon fill="#181818" points="839.37,345.82,842.8485,336.6059,839.0839,340.8282,834.8616,337.0636,839.37,345.82" style="stroke:#181818;stroke-width:1.0;"/><text fill="#000000" font-family="sans-serif" font-size="13" lengthAdjust="spacing" textLength="87" x="839" y="312.0669">MatchStarted</text></g><!--MD5=[5872a278e323fd3121975be720b0ec04]
link Drawing to Finished--><g id="link_Drawing_Finished"><path d="M841,396.35 C841,443.29 841,546.1 841,596.7 " fill="none" id="Drawing-to-Finished" style="stroke:#181818;stroke-width:1.0;"/><polygon fill="#181818" points="841,601.72,845,592.72,841,596.72,837,592.72,841,601.72" style="stroke:#181818;stroke-width:1.0;"/><text fill="#000000" font-family="sans-serif" font-size="13" lengthAdjust="spacing" textLength="79" x="842" y="502.5669">MatchEnded</text></g><!--MD5=[d9cd13f585fbdbe06e574a0b305ae453]
link Drawing to TeamLeadByOne--><g id="link_Drawing_TeamLeadByOne"><path d="M802.82,353.77 C764.68,338.05 704.1,314.38 650,299 C585.2,280.58 509.89,266.03 455.46,256.69 " fill="none" id="Drawing-to-TeamLeadByOne" style="stroke:#181818;stroke-width:1.0;"/><polygon fill="#181818" points="450.26,255.81,458.4569,261.2699,455.1885,256.6528,459.8055,253.3843,450.26,255.81" style="stroke:#181818;stroke-width:1.0;"/><text fill="#000000" font-family="sans-serif" font-size="13" lengthAdjust="spacing" textLength="110" x="705" y="312.0669">TeamScoredDiff1</text></g><!--MD5=[0e4c52b5b346dcf4de8e998d6ed78049]
link TeamLeadByOne to Drawing--><g id="link_TeamLeadByOne_Drawing"><path d="M440.59,269.09 C462.03,278.08 486.27,288.63 508,299 C522.53,305.94 524.78,310.74 540,316 C628.64,346.65 738.29,360.72 797.74,366.49 " fill="none" id="TeamLeadByOne-to-Drawing" style="stroke:#181818;stroke-width:1.0;"/><polygon fill="#181818" points="802.98,366.99,794.3965,362.1605,798.0022,366.5193,793.6434,370.125,802.98,366.99" style="stroke:#181818;stroke-width:1.0;"/><text fill="#000000" font-family="sans-serif" font-size="13" lengthAdjust="spacing" textLength="100" x="541" y="312.0669">TeamConceded</text></g><!--MD5=[0c0415fe80e678593f997f26ea0299e8]
link TeamLeadByOne to TeamExtendingLead--><g id="link_TeamLeadByOne_TeamExtendingLead"><path d="M311.91,247.91 C275.04,253.42 232.52,266.96 209,299 C196.06,316.63 210.09,331.78 231.05,343.51 " fill="none" id="TeamLeadByOne-to-TeamExtendingLead" style="stroke:#181818;stroke-width:1.0;"/><polygon fill="#181818" points="235.62,345.96,229.5756,338.1841,231.2126,343.5989,225.7978,345.2359,235.62,345.96" style="stroke:#181818;stroke-width:1.0;"/><text fill="#000000" font-family="sans-serif" font-size="13" lengthAdjust="spacing" textLength="81" x="210" y="312.0669">TeamScored</text></g><!--MD5=[439344e32b46d743645bc4de302c7e7c]
link TeamExtendingLead to TeamLeadByOne--><g id="link_TeamExtendingLead_TeamLeadByOne"><path d="M311.67,345.95 C316.21,331.69 323.04,313.61 332,299 C337.57,289.91 344.78,280.96 351.95,273.04 " fill="none" id="TeamExtendingLead-to-TeamLeadByOne" style="stroke:#181818;stroke-width:1.0;"/><polygon fill="#181818" points="355.46,269.23,346.41,273.1155,352.0627,272.8985,352.2796,278.5512,355.46,269.23" style="stroke:#181818;stroke-width:1.0;"/><text fill="#000000" font-family="sans-serif" font-size="13" lengthAdjust="spacing" textLength="129" x="333" y="312.0669">TeamConcededDiff1</text></g><!--MD5=[a59976bdebdcbe2dbfe953bce726ddaa]
link TeamLeadByOne to Finished--><g id="link_TeamLeadByOne_Finished"><path d="M422.56,269.26 C436.96,278.15 453,288.58 467,299 C603.45,400.5 751.57,539.63 812.44,598.21 " fill="none" id="TeamLeadByOne-to-Finished" style="stroke:#181818;stroke-width:1.0;"/><polygon fill="#181818" points="816.33,601.95,812.6279,592.8234,812.7308,598.4793,807.0749,598.5822,816.33,601.95" style="stroke:#181818;stroke-width:1.0;"/><text fill="#000000" font-family="sans-serif" font-size="13" lengthAdjust="spacing" textLength="79" x="643" y="439.0669">MatchEnded</text></g><!--MD5=[f28b7b2de2536ae0ab3dbe2682bf9f0b]
link TeamExtendingLead to TeamLosingLead--><g id="link_TeamExtendingLead_TeamLosingLead"><path d="M224.14,391.87 C192.58,401.33 161.64,413.34 152,426 C143.06,437.73 141.37,453.96 142.11,467.93 " fill="none" id="TeamExtendingLead-to-TeamLosingLead" style="stroke:#181818;stroke-width:1.0;"/><polygon fill="#181818" points="142.49,472.97,145.8103,463.6977,142.1185,467.9838,137.8324,464.292,142.49,472.97" style="stroke:#181818;stroke-width:1.0;"/><text fill="#000000" font-family="sans-serif" font-size="13" lengthAdjust="spacing" textLength="100" x="153" y="439.0669">TeamConceded</text></g><!--MD5=[fc16259d3cb41b3027ee9f4043dd091c]
link TeamLosingLead to TeamExtendingLead--><g id="link_TeamLosingLead_TeamExtendingLead"><path d="M211.07,472.97 C227.46,464.99 244.3,455 258,443 C271.39,431.27 282.58,414.87 290.68,400.79 " fill="none" id="TeamLosingLead-to-TeamExtendingLead" style="stroke:#181818;stroke-width:1.0;"/><polygon fill="#181818" points="293.3,396.11,285.4096,402.0042,290.8548,400.4713,292.3877,405.9165,293.3,396.11" style="stroke:#181818;stroke-width:1.0;"/><text fill="#000000" font-family="sans-serif" font-size="13" lengthAdjust="spacing" textLength="81" x="275" y="439.0669">TeamScored</text></g><!--MD5=[60dba8f83a4edf8b489d4d62695cade5]
link TeamExtendingLead to TeamExtendingLead--><g id="link_TeamExtendingLead_TeamExtendingLead"><path d="M385.69,359.55 C405.63,360.37 420.5,364.19 420.5,371 C420.5,377.23 408.08,380.95 390.71,382.18 " fill="none" id="TeamExtendingLead-to-TeamExtendingLead" style="stroke:#181818;stroke-width:1.0;"/><polygon fill="#181818" points="385.69,382.45,394.8941,385.9548,390.6826,382.1782,394.4592,377.9667,385.69,382.45" style="stroke:#181818;stroke-width:1.0;"/><text fill="#000000" font-family="sans-serif" font-size="13" lengthAdjust="spacing" textLength="81" x="426.5" y="375.5669">TeamScored</text></g><!--MD5=[2bae6bf48349c85b978e6781dc7a643b]
link TeamExtendingLead to Finished--><g id="link_TeamExtendingLead_Finished"><path d="M334.87,396.1 C345,404.97 356.01,415.44 365,426 C406.48,474.72 392.02,508.34 443,547 C498.43,589.04 705.25,613.23 796.85,622.1 " fill="none" id="TeamExtendingLead-to-Finished" style="stroke:#181818;stroke-width:1.0;"/><polygon fill="#181818" points="801.92,622.58,793.3365,617.7505,796.9422,622.1093,792.5834,625.715,801.92,622.58" style="stroke:#181818;stroke-width:1.0;"/><text fill="#000000" font-family="sans-serif" font-size="13" lengthAdjust="spacing" textLength="79" x="444" y="502.5669">MatchEnded</text></g><!--MD5=[622722d6a54dbceaca69ee07a01edec7]
link TeamLosingLead to TeamLeadByOne--><g id="link_TeamLosingLead_TeamLeadByOne"><path d="M120.79,472.98 C90.32,442.09 47.61,387.48 76,346 C126.61,272.05 233.8,251.14 306.64,245.82 " fill="none" id="TeamLosingLead-to-TeamLeadByOne" style="stroke:#181818;stroke-width:1.0;"/><polygon fill="#181818" points="311.82,245.46,302.5668,242.0869,306.8318,245.803,303.1156,250.068,311.82,245.46" style="stroke:#181818;stroke-width:1.0;"/><text fill="#000000" font-family="sans-serif" font-size="13" lengthAdjust="spacing" textLength="129" x="77" y="375.5669">TeamConcededDiff1</text></g><!--MD5=[dfdafe491fff9daf340e8e06079eab71]
link TeamLosingLead to TeamLosingLead--><g id="link_TeamLosingLead_TeamLosingLead"><path d="M215.68,486.42 C235.34,486.87 250.5,490.73 250.5,498 C250.5,504.58 238.05,508.37 221.08,509.36 " fill="none" id="TeamLosingLead-to-TeamLosingLead" style="stroke:#181818;stroke-width:1.0;"/><polygon fill="#181818" points="215.68,509.58,224.8327,513.2171,220.676,509.3802,224.5129,505.2235,215.68,509.58" style="stroke:#181818;stroke-width:1.0;"/><text fill="#000000" font-family="sans-serif" font-size="13" lengthAdjust="spacing" textLength="100" x="256.5" y="502.5669">TeamConceded</text></g><!--MD5=[f60ce338dca25490bb2935b98846aa86]
link TeamLosingLead to Finished--><g id="link_TeamLosingLead_Finished"><path d="M190.27,523.13 C222.11,539.72 266.99,560.72 309,572 C485.22,619.3 704.42,625.8 796.74,626.27 " fill="none" id="TeamLosingLead-to-Finished" style="stroke:#181818;stroke-width:1.0;"/><polygon fill="#181818" points="801.84,626.29,792.8515,622.2643,796.84,626.2757,792.8286,630.2643,801.84,626.29" style="stroke:#181818;stroke-width:1.0;"/><text fill="#000000" font-family="sans-serif" font-size="13" lengthAdjust="spacing" textLength="79" x="310" y="568.0669">MatchEnded</text></g><!--MD5=[bb4ce7714da6ac8d0e0c8c0ec5976d8f]
link Drawing to TeamDeficitOfOne--><g id="link_Drawing_TeamDeficitOfOne"><path d="M879.2,360.76 C921.92,350.33 993.1,332.64 1054,316 C1079.91,308.92 1086,305.76 1112,299 C1164.7,285.29 1224.5,271.68 1270.84,261.55 " fill="none" id="Drawing-to-TeamDeficitOfOne" style="stroke:#181818;stroke-width:1.0;"/><polygon fill="#181818" points="1275.85,260.46,1266.2021,258.4807,1270.9661,261.531,1267.9157,266.295,1275.85,260.46" style="stroke:#181818;stroke-width:1.0;"/><text fill="#000000" font-family="sans-serif" font-size="13" lengthAdjust="spacing" textLength="129" x="1113" y="312.0669">TeamConcededDiff1</text></g><!--MD5=[a71c7da3c4bed0da338c6fb9d682200a]
link TeamDeficitOfOne to Drawing--><g id="link_TeamDeficitOfOne_Drawing"><path d="M1275.91,246.85 C1196.79,250.76 1067.88,262.72 963,299 C954.47,301.95 915.39,325 883.72,344.05 " fill="none" id="TeamDeficitOfOne-to-Drawing" style="stroke:#181818;stroke-width:1.0;"/><polygon fill="#181818" points="879.11,346.83,888.8854,345.6295,883.3975,344.2575,884.7695,338.7696,879.11,346.83" style="stroke:#181818;stroke-width:1.0;"/><text fill="#000000" font-family="sans-serif" font-size="13" lengthAdjust="spacing" textLength="81" x="964" y="312.0669">TeamScored</text></g><!--MD5=[f4283a6a11091c6a1263ca0b8b8f0cb6]
link TeamDeficitOfOne to TeamExtendingDeficit--><g id="link_TeamDeficitOfOne_TeamExtendingDeficit"><path d="M1380.85,269.11 C1395.12,282.91 1406.6,300.51 1396,316 C1384.41,332.94 1366.67,344.56 1347.69,352.54 " fill="none" id="TeamDeficitOfOne-to-TeamExtendingDeficit" style="stroke:#181818;stroke-width:1.0;"/><polygon fill="#181818" points="1342.84,354.5,1352.6832,354.8348,1347.4754,352.6258,1349.6844,347.4181,1342.84,354.5" style="stroke:#181818;stroke-width:1.0;"/><text fill="#000000" font-family="sans-serif" font-size="13" lengthAdjust="spacing" textLength="100" x="1401" y="312.0669">TeamConceded</text></g><!--MD5=[033079d72da01ca8e32ae6ba7de84403]
link TeamExtendingDeficit to TeamDeficitOfOne--><g id="link_TeamExtendingDeficit_TeamDeficitOfOne"><path d="M1251.26,345.77 C1249.16,331.28 1248.98,313.01 1257,299 C1263.26,288.07 1272.68,279.14 1283.14,271.92 " fill="none" id="TeamExtendingDeficit-to-TeamDeficitOfOne" style="stroke:#181818;stroke-width:1.0;"/><polygon fill="#181818" points="1287.36,269.13,1277.6462,270.7556,1283.1888,271.887,1282.0574,277.4296,1287.36,269.13" style="stroke:#181818;stroke-width:1.0;"/><text fill="#000000" font-family="sans-serif" font-size="13" lengthAdjust="spacing" textLength="129" x="1258" y="312.0669">TeamConcededDiff1</text></g><!--MD5=[408cc5eaa965eedd021d9b9ccd7f4525]
link TeamDeficitOfOne to Finished--><g id="link_TeamDeficitOfOne_Finished"><path d="M1422.11,248.38 C1488.65,255.87 1582.99,278.6 1627,346 C1680.62,428.11 1564.73,520.95 1521,547 C1412.88,611.4 1018.29,623.31 885.19,625.51 " fill="none" id="TeamDeficitOfOne-to-Finished" style="stroke:#181818;stroke-width:1.0;"/><polygon fill="#181818" points="880.18,625.59,889.2472,629.4351,885.1793,625.5043,889.1101,621.4363,880.18,625.59" style="stroke:#181818;stroke-width:1.0;"/><text fill="#000000" font-family="sans-serif" font-size="13" lengthAdjust="spacing" textLength="79" x="1635" y="439.0669">MatchEnded</text></g><!--MD5=[140c7e9eaf5fd1374418b138e9cb84e0]
link TeamExtendingDeficit to TeamLosingDeficit--><g id="link_TeamExtendingDeficit_TeamLosingDeficit"><path d="M1236.95,396.1 C1227.75,410.21 1220.58,428.13 1229,443 C1235.18,453.92 1244.55,462.87 1254.94,470.12 " fill="none" id="TeamExtendingDeficit-to-TeamLosingDeficit" style="stroke:#181818;stroke-width:1.0;"/><polygon fill="#181818" points="1259.13,472.92,1253.8801,464.587,1254.9763,470.1366,1249.4267,471.2328,1259.13,472.92" style="stroke:#181818;stroke-width:1.0;"/><text fill="#000000" font-family="sans-serif" font-size="13" lengthAdjust="spacing" textLength="81" x="1230" y="439.0669">TeamScored</text></g><!--MD5=[ef557c01b413682ca4829b18cc5ff3cf]
link TeamLosingDeficit to TeamExtendingDeficit--><g id="link_TeamLosingDeficit_TeamExtendingDeficit"><path d="M1322.46,472.9 C1323.44,458.62 1322.77,440.54 1316,426 C1311.41,416.16 1304.13,407.29 1296.21,399.72 " fill="none" id="TeamLosingDeficit-to-TeamExtendingDeficit" style="stroke:#181818;stroke-width:1.0;"/><polygon fill="#181818" points="1292.29,396.11,1296.212,405.1443,1295.9722,399.4925,1301.624,399.2527,1292.29,396.11" style="stroke:#181818;stroke-width:1.0;"/><text fill="#000000" font-family="sans-serif" font-size="13" lengthAdjust="spacing" textLength="100" x="1322" y="439.0669">TeamConceded</text></g><!--MD5=[f3d1d78a2cc54c6b6edd3ba636a00444]
link TeamExtendingDeficit to TeamExtendingDeficit--><g id="link_TeamExtendingDeficit_TeamExtendingDeficit"><path d="M1342.56,359.6 C1362.67,360.54 1377.5,364.34 1377.5,371 C1377.5,377.09 1365.11,380.78 1347.62,382.09 " fill="none" id="TeamExtendingDeficit-to-TeamExtendingDeficit" style="stroke:#181818;stroke-width:1.0;"/><polygon fill="#181818" points="1342.56,382.4,1351.784,385.8522,1347.551,382.0997,1351.3035,377.8667,1342.56,382.4" style="stroke:#181818;stroke-width:1.0;"/><text fill="#000000" font-family="sans-serif" font-size="13" lengthAdjust="spacing" textLength="100" x="1383.5" y="375.5669">TeamConceded</text></g><!--MD5=[503a57f4df594d80217d5c9f80f9fdc3]
link TeamExtendingDeficit to Finished--><g id="link_TeamExtendingDeficit_Finished"><path d="M1217.49,396.12 C1139.38,443.81 965.77,549.82 884.52,599.43 " fill="none" id="TeamExtendingDeficit-to-Finished" style="stroke:#181818;stroke-width:1.0;"/><polygon fill="#181818" points="880.25,602.04,890.0125,600.7389,884.5107,599.4235,885.8261,593.9217,880.25,602.04" style="stroke:#181818;stroke-width:1.0;"/><text fill="#000000" font-family="sans-serif" font-size="13" lengthAdjust="spacing" textLength="83" x="1091" y="502.5669">Match Ended</text></g><!--MD5=[52f076ae2dee73dfbff3358bc2b53572]
link TeamLosingDeficit to TeamDeficitOfOne--><g id="link_TeamLosingDeficit_TeamDeficitOfOne"><path d="M1390.06,472.81 C1426.03,456.78 1466.87,431.96 1490,396 C1509.83,365.18 1505.52,352.38 1510,316 C1510.92,308.5 1514.41,305.13 1510,299 C1490.88,272.42 1458.05,258.74 1427,251.77 " fill="none" id="TeamLosingDeficit-to-TeamDeficitOfOne" style="stroke:#181818;stroke-width:1.0;"/><polygon fill="#181818" points="1422.04,250.71,1430.0067,256.5006,1426.9298,251.7537,1431.6767,248.6769,1422.04,250.71" style="stroke:#181818;stroke-width:1.0;"/><text fill="#000000" font-family="sans-serif" font-size="13" lengthAdjust="spacing" textLength="110" x="1508" y="375.5669">TeamScoredDiff1</text></g><!--MD5=[9fb89ab145844368cfc2e057c6de0838]
link TeamLosingDeficit to TeamLosingDeficit--><g id="link_TeamLosingDeficit_TeamLosingDeficit"><path d="M1392.53,486.46 C1412.39,487.07 1427.5,490.92 1427.5,498 C1427.5,504.48 1414.88,508.25 1397.54,509.31 " fill="none" id="TeamLosingDeficit-to-TeamLosingDeficit" style="stroke:#181818;stroke-width:1.0;"/><polygon fill="#181818" points="1392.53,509.54,1401.7033,513.1248,1397.5248,509.3117,1401.3379,505.1332,1392.53,509.54" style="stroke:#181818;stroke-width:1.0;"/><text fill="#000000" font-family="sans-serif" font-size="13" lengthAdjust="spacing" textLength="81" x="1433.5" y="502.5669">TeamScored</text></g><!--MD5=[5f6ad79bf1b4073e2aee234aa7a20a47]
link TeamLosingDeficit to Finished--><g id="link_TeamLosingDeficit_Finished"><path d="M1245.43,519.7 C1192.31,534.54 1118.82,554.86 1054,572 C995.76,587.4 928.32,604.35 885.2,615.08 " fill="none" id="TeamLosingDeficit-to-Finished" style="stroke:#181818;stroke-width:1.0;"/><polygon fill="#181818" points="880.32,616.29,890.0167,618.0146,885.1741,615.0908,888.0979,610.2481,880.32,616.29" style="stroke:#181818;stroke-width:1.0;"/><text fill="#000000" font-family="sans-serif" font-size="13" lengthAdjust="spacing" textLength="79" x="1113" y="568.0669">MatchEnded</text></g><!--MD5=[f3edc34042f787149cb4b2f443172939]
link Finished to *end--><g id="link_Finished_*end"><path d="M841,652.21 C841,669.84 841,693.13 841,707.84 " fill="none" id="Finished-to-*end" style="stroke:#181818;stroke-width:1.0;"/><polygon fill="#181818" points="841,712.84,845,703.84,841,707.84,837,703.84,841,712.84" style="stroke:#181818;stroke-width:1.0;"/></g><!--MD5=[3eea24190e42cd64eaed9c78e4410887]
@startuml MatchStateMachine
[*] - -> Scheduled
Scheduled - -> In_play
In_play - -> Drawing: MatchStarted

Drawing - -> Finished: MatchEnded

state TeamWinning {
    Drawing - -> TeamLeadByOne: TeamScoredDiff1
    
    TeamLeadByOne - -> Drawing: TeamConceded
    TeamLeadByOne - -> TeamExtendingLead: TeamScored
    TeamLeadByOne - -> Finished: MatchEnded

    TeamExtendingLead - -> TeamLeadByOne: TeamConcededDiff1
    TeamExtendingLead - -> TeamLosingLead: TeamConceded
    TeamExtendingLead - -> TeamExtendingLead: TeamScored
    TeamExtendingLead - -> Finished: MatchEnded

    TeamLosingLead - -> TeamLeadByOne: TeamConcededDiff1
    TeamLosingLead - -> TeamLosingLead: TeamConceded
    TeamLosingLead - -> TeamExtendingLead: TeamScored
    TeamLosingLead - -> Finished: MatchEnded
}

state TeamLosing {
    Drawing - -> TeamDeficitOfOne: TeamConcededDiff1
    
    TeamDeficitOfOne - -> Drawing: TeamScored
    TeamDeficitOfOne - -> TeamExtendingDeficit: TeamConceded
    TeamDeficitOfOne - -> Finished: MatchEnded

    TeamExtendingDeficit - -> TeamLosingDeficit: TeamScored
    TeamExtendingDeficit - -> TeamDeficitOfOne: TeamConcededDiff1
    TeamExtendingDeficit - -> TeamExtendingDeficit: TeamConceded
    TeamExtendingDeficit - -> Finished: Match Ended

    TeamLosingDeficit - -> TeamDeficitOfOne: TeamScoredDiff1
    TeamLosingDeficit - -> TeamLosingDeficit: TeamScored
    TeamLosingDeficit - -> TeamExtendingDeficit: TeamConceded
    TeamLosingDeficit - -> Finished: MatchEnded
}

Finished - -> [*]
@enduml

PlantUML version 1.2022.2(Sat Mar 05 16:30:19 UTC 2022)
(GPL source distribution)
Java Runtime: OpenJDK Runtime Environment
JVM: OpenJDK 64-Bit Server VM
Default Encoding: UTF-8
Language: en
Country: null
--></g></svg>