<?xml version="1.0" encoding="UTF-8" standalone="no"?><svg xmlns="http://www.w3.org/2000/svg" xmlns:xlink="http://www.w3.org/1999/xlink" contentStyleType="text/css" height="739px" preserveAspectRatio="none" style="width:1299px;height:739px;background:#FFFFFF;" version="1.1" viewBox="0 0 1299 739" width="1299px" zoomAndPan="magnify"><defs/><g><!--MD5=[76bd3a9713e26e8431a74ecf4a202b96]
cluster TeamWinning--><g id="cluster_TeamWinning"><rect height="355" rx="12.5" ry="12.5" style="stroke:#181818;stroke-width:0.5;fill:none;" width="305" x="168.51" y="184"/><rect height="326.7031" rx="12.5" ry="12.5" style="stroke:#00000000;stroke-width:1.0;fill:none;" width="303" x="169.51" y="211.2969"/><line style="stroke:#181818;stroke-width:0.5;fill:none;" x1="168.51" x2="473.51" y1="210.2969" y2="210.2969"/><text fill="#000000" font-family="sans-serif" font-size="14" lengthAdjust="spacing" textLength="94" x="274.01" y="200.9951">TeamWinning</text></g><!--MD5=[9c29d8de462e499524272ee5db8ec21c]
cluster TeamLosing--><g id="cluster_TeamLosing"><rect height="355" rx="12.5" ry="12.5" style="stroke:#181818;stroke-width:0.5;fill:none;" width="334" x="785.51" y="184"/><rect height="326.7031" rx="12.5" ry="12.5" style="stroke:#00000000;stroke-width:1.0;fill:none;" width="332" x="786.51" y="211.2969"/><line style="stroke:#181818;stroke-width:0.5;fill:none;" x1="785.51" x2="1119.51" y1="210.2969" y2="210.2969"/><text fill="#000000" font-family="sans-serif" font-size="14" lengthAdjust="spacing" textLength="84" x="910.51" y="200.9951">TeamLosing</text></g><g id="TeamWinning.TeamLeadByOne"><rect fill="#F1F1F1" height="50" rx="12.5" ry="12.5" style="stroke:#181818;stroke-width:0.5;" width="138" x="228.51" y="219"/><line style="stroke:#181818;stroke-width:0.5;" x1="228.51" x2="366.51" y1="245.2969" y2="245.2969"/><text fill="#000000" font-family="sans-serif" font-size="14" lengthAdjust="spacing" textLength="118" x="238.51" y="236.9951">TeamLeadByOne</text></g><g id="TeamWinning.TeamExtendingLead"><rect fill="#F1F1F1" height="50" rx="12.5" ry="12.5" style="stroke:#181818;stroke-width:0.5;" width="161" x="185.01" y="346"/><line style="stroke:#181818;stroke-width:0.5;" x1="185.01" x2="346.01" y1="372.2969" y2="372.2969"/><text fill="#000000" font-family="sans-serif" font-size="14" lengthAdjust="spacing" textLength="141" x="195.01" y="363.9951">TeamExtendingLead</text></g><g id="TeamWinning.TeamLosingLead"><rect fill="#F1F1F1" height="50" rx="12.5" ry="12.5" style="stroke:#181818;stroke-width:0.5;" width="137" x="190.01" y="473"/><line style="stroke:#181818;stroke-width:0.5;" x1="190.01" x2="327.01" y1="499.2969" y2="499.2969"/><text fill="#000000" font-family="sans-serif" font-size="14" lengthAdjust="spacing" textLength="117" x="200.01" y="490.9951">TeamLosingLead</text></g><g id="TeamLosing.TeamDeficitOfOne"><rect fill="#F1F1F1" height="50" rx="12.5" ry="12.5" style="stroke:#181818;stroke-width:0.5;" width="146" x="866.51" y="219"/><line style="stroke:#181818;stroke-width:0.5;" x1="866.51" x2="1012.51" y1="245.2969" y2="245.2969"/><text fill="#000000" font-family="sans-serif" font-size="14" lengthAdjust="spacing" textLength="126" x="876.51" y="236.9951">TeamDeficitOfOne</text></g><g id="TeamLosing.TeamExtendingDeficit"><rect fill="#F1F1F1" height="50" rx="12.5" ry="12.5" style="stroke:#181818;stroke-width:0.5;" width="171" x="802.01" y="346"/><line style="stroke:#181818;stroke-width:0.5;" x1="802.01" x2="973.01" y1="372.2969" y2="372.2969"/><text fill="#000000" font-family="sans-serif" font-size="14" lengthAdjust="spacing" textLength="151" x="812.01" y="363.9951">TeamExtendingDeficit</text></g><g id="TeamLosing.TeamLosingDeficit"><rect fill="#F1F1F1" height="50" rx="12.5" ry="12.5" style="stroke:#181818;stroke-width:0.5;" width="147" x="802.01" y="473"/><line style="stroke:#181818;stroke-width:0.5;" x1="802.01" x2="949.01" y1="499.2969" y2="499.2969"/><text fill="#000000" font-family="sans-serif" font-size="14" lengthAdjust="spacing" textLength="127" x="812.01" y="490.9951">TeamLosingDeficit</text></g><ellipse cx="607.51" cy="16" fill="#222222" rx="10" ry="10" style="stroke:none;stroke-width:1.0;"/><g id="Scheduled"><rect fill="#F1F1F1" height="50" rx="12.5" ry="12.5" style="stroke:#181818;stroke-width:0.5;" width="94" x="560.51" y="87"/><line style="stroke:#181818;stroke-width:0.5;" x1="560.51" x2="654.51" y1="113.2969" y2="113.2969"/><text fill="#000000" font-family="sans-serif" font-size="14" lengthAdjust="spacing" textLength="74" x="570.51" y="104.9951">Scheduled</text></g><g id="In_play"><rect fill="#F1F1F1" height="50" rx="12.5" ry="12.5" style="stroke:#181818;stroke-width:0.5;" width="66" x="574.51" y="219"/><line style="stroke:#181818;stroke-width:0.5;" x1="574.51" x2="640.51" y1="245.2969" y2="245.2969"/><text fill="#000000" font-family="sans-serif" font-size="14" lengthAdjust="spacing" textLength="46" x="584.51" y="236.9951">In_play</text></g><g id="Drawing"><rect fill="#F1F1F1" height="50" rx="12.5" ry="12.5" style="stroke:#181818;stroke-width:0.5;" width="76" x="570.51" y="346"/><line style="stroke:#181818;stroke-width:0.5;" x1="570.51" x2="646.51" y1="372.2969" y2="372.2969"/><text fill="#000000" font-family="sans-serif" font-size="14" lengthAdjust="spacing" textLength="56" x="580.51" y="363.9951">Drawing</text></g><g id="Finished"><rect fill="#F1F1F1" height="50" rx="12.5" ry="12.5" style="stroke:#181818;stroke-width:0.5;" width="78" x="570.51" y="602"/><line style="stroke:#181818;stroke-width:0.5;" x1="570.51" x2="648.51" y1="628.2969" y2="628.2969"/><text fill="#000000" font-family="sans-serif" font-size="14" lengthAdjust="spacing" textLength="58" x="580.51" y="619.9951">Finished</text></g><ellipse cx="609.51" cy="723" fill="none" rx="10" ry="10" style="stroke:#222222;stroke-width:1.0;"/><ellipse cx="610.01" cy="723.5" fill="#222222" rx="6" ry="6" style="stroke:none;stroke-width:1.0;"/><!--MD5=[20da75546fbd4a28f0d1e35b8dc7a7d6]
link *start to Scheduled--><g id="link_*start_Scheduled"><path d="M607.51,26.01 C607.51,38.7 607.51,62.41 607.51,81.57 " fill="none" id="*start-to-Scheduled" style="stroke:#181818;stroke-width:1.0;"/><polygon fill="#181818" points="607.51,86.84,611.51,77.84,607.51,81.84,603.51,77.84,607.51,86.84" style="stroke:#181818;stroke-width:1.0;"/></g><!--MD5=[3930b5e0aecd1202faa5ffb4d95ea778]
link Scheduled to In_play--><g id="link_Scheduled_In_play"><path d="M607.51,137.15 C607.51,158.86 607.51,190.79 607.51,213.9 " fill="none" id="Scheduled-to-In_play" style="stroke:#181818;stroke-width:1.0;"/><polygon fill="#181818" points="607.51,218.98,611.51,209.98,607.51,213.98,603.51,209.98,607.51,218.98" style="stroke:#181818;stroke-width:1.0;"/></g><!--MD5=[b8de1fd22f908886c8fedda043274ed4]
link In_play to Drawing--><g id="link_In_play_Drawing"><path d="M605.53,269.31 C604.65,283.02 603.93,300.47 604.51,316 C604.8,323.94 605.34,332.52 605.92,340.45 " fill="none" id="In_play-to-Drawing" style="stroke:#181818;stroke-width:1.0;"/><polygon fill="#181818" points="606.34,345.83,609.6339,336.5483,605.9543,340.8449,601.6577,337.1653,606.34,345.83" style="stroke:#181818;stroke-width:1.0;"/><text fill="#000000" font-family="sans-serif" font-size="13" lengthAdjust="spacing" textLength="87" x="605.51" y="312.0669">MatchStarted</text></g><!--MD5=[5872a278e323fd3121975be720b0ec04]
link Drawing to Finished--><g id="link_Drawing_Finished"><path d="M608.6,396.35 C608.79,443.29 609.19,546.1 609.39,596.7 " fill="none" id="Drawing-to-Finished" style="stroke:#181818;stroke-width:1.0;"/><polygon fill="#181818" points="609.41,601.72,613.3585,592.6973,609.3814,596.7201,605.3586,592.743,609.41,601.72" style="stroke:#181818;stroke-width:1.0;"/><text fill="#000000" font-family="sans-serif" font-size="13" lengthAdjust="spacing" textLength="79" x="609.51" y="502.5669">MatchEnded</text></g><!--MD5=[d9cd13f585fbdbe06e574a0b305ae453]
link Drawing to TeamLeadByOne--><g id="link_Drawing_TeamLeadByOne"><path d="M570.47,363.21 C498.55,350.25 348.93,322.69 339.51,316 C325.03,305.72 314.72,288.74 307.95,273.97 " fill="none" id="Drawing-to-TeamLeadByOne" style="stroke:#181818;stroke-width:1.0;"/><polygon fill="#181818" points="305.78,269.06,305.7485,278.9088,307.7961,273.6355,313.0694,275.6831,305.78,269.06" style="stroke:#181818;stroke-width:1.0;"/><text fill="#000000" font-family="sans-serif" font-size="13" lengthAdjust="spacing" textLength="81" x="340.51" y="312.0669">TeamScored</text></g><!--MD5=[0e4c52b5b346dcf4de8e998d6ed78049]
link TeamLeadByOne to Drawing--><g id="link_TeamLeadByOne_Drawing"><path d="M357.47,269.1 C418.47,293.62 511.49,331 565.51,352.72 " fill="none" id="TeamLeadByOne-to-Drawing" style="stroke:#181818;stroke-width:1.0;"/><polygon fill="#181818" points="570.3,354.64,563.448,347.5654,565.6626,352.7708,560.4572,354.9853,570.3,354.64" style="stroke:#181818;stroke-width:1.0;"/><text fill="#000000" font-family="sans-serif" font-size="13" lengthAdjust="spacing" textLength="100" x="472.51" y="312.0669">TeamConceded</text></g><!--MD5=[0c0415fe80e678593f997f26ea0299e8]
link TeamLeadByOne to TeamExtendingLead--><g id="link_TeamLeadByOne_TeamExtendingLead"><path d="M244.76,269.28 C233.45,277.09 222.97,286.93 216.51,299 C208.57,313.84 217.04,329.33 229.05,342.04 " fill="none" id="TeamLeadByOne-to-TeamExtendingLead" style="stroke:#181818;stroke-width:1.0;"/><polygon fill="#181818" points="232.87,345.9,229.3717,336.6934,229.3488,342.3502,223.692,342.3273,232.87,345.9" style="stroke:#181818;stroke-width:1.0;"/><text fill="#000000" font-family="sans-serif" font-size="13" lengthAdjust="spacing" textLength="81" x="217.51" y="312.0669">TeamScored</text></g><!--MD5=[a59976bdebdcbe2dbfe953bce726ddaa]
link TeamLeadByOne to Finished--><g id="link_TeamLeadByOne_Finished"><path d="M228.4,268.5 C162.4,295.14 67.03,345.62 25.51,426 C6.97,461.88 6,449.03 68.51,547 C76.63,559.73 78.02,565.22 91.51,572 C174.13,613.5 455.31,623.15 565.09,625.36 " fill="none" id="TeamLeadByOne-to-Finished" style="stroke:#181818;stroke-width:1.0;"/><polygon fill="#181818" points="570.19,625.46,561.2718,621.2808,565.191,625.36,561.1118,629.2792,570.19,625.46" style="stroke:#181818;stroke-width:1.0;"/><text fill="#000000" font-family="sans-serif" font-size="13" lengthAdjust="spacing" textLength="79" x="26.51" y="439.0669">MatchEnded</text></g><!--MD5=[f28b7b2de2536ae0ab3dbe2682bf9f0b]
link TeamExtendingLead to TeamLosingLead--><g id="link_TeamExtendingLead_TeamLosingLead"><path d="M236.63,396.17 C228.54,404.67 220.79,414.9 216.51,426 C210.81,440.76 217.86,456.01 227.71,468.57 " fill="none" id="TeamExtendingLead-to-TeamLosingLead" style="stroke:#181818;stroke-width:1.0;"/><polygon fill="#181818" points="231.14,472.73,228.4755,463.2484,227.9489,468.8807,222.3167,468.3541,231.14,472.73" style="stroke:#181818;stroke-width:1.0;"/><text fill="#000000" font-family="sans-serif" font-size="13" lengthAdjust="spacing" textLength="100" x="217.51" y="439.0669">TeamConceded</text></g><!--MD5=[fc16259d3cb41b3027ee9f4043dd091c]
link TeamLosingLead to TeamExtendingLead--><g id="link_TeamLosingLead_TeamExtendingLead"><path d="M298.06,472.75 C307.87,464.61 317.12,454.6 322.51,443 C329.82,427.28 320.4,411.99 307.24,399.66 " fill="none" id="TeamLosingLead-to-TeamExtendingLead" style="stroke:#181818;stroke-width:1.0;"/><polygon fill="#181818" points="303.44,396.26,307.4709,405.2462,307.1628,399.5977,312.8113,399.2896,303.44,396.26" style="stroke:#181818;stroke-width:1.0;"/><text fill="#000000" font-family="sans-serif" font-size="13" lengthAdjust="spacing" textLength="81" x="325.51" y="439.0669">TeamScored</text></g><!--MD5=[60dba8f83a4edf8b489d4d62695cade5]
link TeamExtendingLead to TeamExtendingLead--><g id="link_TeamExtendingLead_TeamExtendingLead"><path d="M346.2,359.55 C366.14,360.37 381.01,364.19 381.01,371 C381.01,377.23 368.58,380.95 351.22,382.18 " fill="none" id="TeamExtendingLead-to-TeamExtendingLead" style="stroke:#181818;stroke-width:1.0;"/><polygon fill="#181818" points="346.2,382.45,355.4041,385.9548,351.1926,382.1782,354.9692,377.9667,346.2,382.45" style="stroke:#181818;stroke-width:1.0;"/><text fill="#000000" font-family="sans-serif" font-size="13" lengthAdjust="spacing" textLength="81" x="387.01" y="375.5669">TeamScored</text></g><!--MD5=[2bae6bf48349c85b978e6781dc7a643b]
link TeamExtendingLead to Finished--><g id="link_TeamExtendingLead_Finished"><path d="M188.97,396.08 C152.62,411.81 112.6,436.37 91.51,473 C75.1,501.5 70.08,522.05 91.51,547 C152.56,618.07 450.72,625.92 564.9,626.27 " fill="none" id="TeamExtendingLead-to-Finished" style="stroke:#181818;stroke-width:1.0;"/><polygon fill="#181818" points="570.2,626.28,561.2115,622.2543,565.2,626.2657,561.1886,630.2543,570.2,626.28" style="stroke:#181818;stroke-width:1.0;"/><text fill="#000000" font-family="sans-serif" font-size="13" lengthAdjust="spacing" textLength="79" x="92.51" y="502.5669">MatchEnded</text></g><!--MD5=[8eac268ff00e0983cc103f8d87facc53]
link TeamLosingLead to Drawing--><g id="link_TeamLosingLead_Drawing"><path d="M327.01,473.79 C354.56,464.37 386.59,453.29 415.51,443 C467.01,424.67 525.95,402.87 565.01,388.3 " fill="none" id="TeamLosingLead-to-Drawing" style="stroke:#181818;stroke-width:1.0;"/><polygon fill="#181818" points="570.15,386.39,560.3201,385.7785,565.4637,388.1331,563.1091,393.2766,570.15,386.39" style="stroke:#181818;stroke-width:1.0;"/><text fill="#000000" font-family="sans-serif" font-size="13" lengthAdjust="spacing" textLength="100" x="458.51" y="439.0669">TeamConceded</text></g><!--MD5=[dfdafe491fff9daf340e8e06079eab71]
link TeamLosingLead to TeamLosingLead--><g id="link_TeamLosingLead_TeamLosingLead"><path d="M327.19,486.42 C346.85,486.87 362.01,490.73 362.01,498 C362.01,504.58 349.56,508.37 332.59,509.36 " fill="none" id="TeamLosingLead-to-TeamLosingLead" style="stroke:#181818;stroke-width:1.0;"/><polygon fill="#181818" points="327.19,509.58,336.3427,513.2171,332.186,509.3802,336.0229,505.2235,327.19,509.58" style="stroke:#181818;stroke-width:1.0;"/><text fill="#000000" font-family="sans-serif" font-size="13" lengthAdjust="spacing" textLength="100" x="368.01" y="502.5669">TeamConceded</text></g><!--MD5=[f60ce338dca25490bb2935b98846aa86]
link TeamLosingLead to Finished--><g id="link_TeamLosingLead_Finished"><path d="M324.94,523.04 C395.31,548.5 504.43,587.98 565.06,609.92 " fill="none" id="TeamLosingLead-to-Finished" style="stroke:#181818;stroke-width:1.0;"/><polygon fill="#181818" points="570.06,611.73,562.9572,604.9073,565.3581,610.0293,560.2361,612.4303,570.06,611.73" style="stroke:#181818;stroke-width:1.0;"/><text fill="#000000" font-family="sans-serif" font-size="13" lengthAdjust="spacing" textLength="79" x="455.51" y="568.0669">MatchEnded</text></g><!--MD5=[bb4ce7714da6ac8d0e0c8c0ec5976d8f]
link Drawing to TeamDeficitOfOne--><g id="link_Drawing_TeamDeficitOfOne"><path d="M646.74,346.83 C676.77,328.91 716.29,306.01 733.51,299 C774.31,282.4 821.76,269.55 860.82,260.56 " fill="none" id="Drawing-to-TeamDeficitOfOne" style="stroke:#181818;stroke-width:1.0;"/><polygon fill="#181818" points="866.03,259.37,856.3647,257.4775,861.1559,260.4849,858.1485,265.2761,866.03,259.37" style="stroke:#181818;stroke-width:1.0;"/><text fill="#000000" font-family="sans-serif" font-size="13" lengthAdjust="spacing" textLength="100" x="734.51" y="312.0669">TeamConceded</text></g><!--MD5=[a71c7da3c4bed0da338c6fb9d682200a]
link TeamDeficitOfOne to Drawing--><g id="link_TeamDeficitOfOne_Drawing"><path d="M911.59,269.33 C892.48,284.81 865.91,304.1 839.51,316 C777.56,343.93 699.51,358.29 651.85,364.97 " fill="none" id="TeamDeficitOfOne-to-Drawing" style="stroke:#181818;stroke-width:1.0;"/><polygon fill="#181818" points="646.76,365.67,656.2154,368.4258,651.7148,364.9989,655.1417,360.4982,646.76,365.67" style="stroke:#181818;stroke-width:1.0;"/><text fill="#000000" font-family="sans-serif" font-size="13" lengthAdjust="spacing" textLength="81" x="869.51" y="312.0669">TeamScored</text></g><!--MD5=[f4283a6a11091c6a1263ca0b8b8f0cb6]
link TeamDeficitOfOne to TeamExtendingDeficit--><g id="link_TeamDeficitOfOne_TeamExtendingDeficit"><path d="M956.5,269.1 C964.23,283.21 970.13,301.12 962.51,316 C957.13,326.5 948.66,335.42 939.31,342.8 " fill="none" id="TeamDeficitOfOne-to-TeamExtendingDeficit" style="stroke:#181818;stroke-width:1.0;"/><polygon fill="#181818" points="935.26,345.87,944.8511,343.6316,939.248,342.854,940.0255,337.2509,935.26,345.87" style="stroke:#181818;stroke-width:1.0;"/><text fill="#000000" font-family="sans-serif" font-size="13" lengthAdjust="spacing" textLength="100" x="966.51" y="312.0669">TeamConceded</text></g><!--MD5=[408cc5eaa965eedd021d9b9ccd7f4525]
link TeamDeficitOfOne to Finished--><g id="link_TeamDeficitOfOne_Finished"><path d="M1012.62,267.43 C1033.85,275.65 1056.44,286.16 1075.51,299 C1176.14,366.75 1265.09,452.12 1189.51,547 C1156.14,588.89 784.36,615.37 654.2,623.4 " fill="none" id="TeamDeficitOfOne-to-Finished" style="stroke:#181818;stroke-width:1.0;"/><polygon fill="#181818" points="648.92,623.73,658.1434,627.1838,653.911,623.4305,657.6643,619.1982,648.92,623.73" style="stroke:#181818;stroke-width:1.0;"/><text fill="#000000" font-family="sans-serif" font-size="13" lengthAdjust="spacing" textLength="79" x="1212.51" y="439.0669">MatchEnded</text></g><!--MD5=[140c7e9eaf5fd1374418b138e9cb84e0]
link TeamExtendingDeficit to TeamLosingDeficit--><g id="link_TeamExtendingDeficit_TeamLosingDeficit"><path d="M870.11,396.08 C864.63,405.03 859.29,415.55 856.51,426 C852.85,439.71 855.96,454.92 860.65,467.72 " fill="none" id="TeamExtendingDeficit-to-TeamLosingDeficit" style="stroke:#181818;stroke-width:1.0;"/><polygon fill="#181818" points="862.58,472.69,863.0402,462.8519,860.765,468.0311,855.5859,465.7559,862.58,472.69" style="stroke:#181818;stroke-width:1.0;"/><text fill="#000000" font-family="sans-serif" font-size="13" lengthAdjust="spacing" textLength="81" x="857.51" y="439.0669">TeamScored</text></g><!--MD5=[ef557c01b413682ca4829b18cc5ff3cf]
link TeamLosingDeficit to TeamExtendingDeficit--><g id="link_TeamLosingDeficit_TeamExtendingDeficit"><path d="M917.83,472.91 C928.13,464.83 937.81,454.81 943.51,443 C951.06,427.36 941.63,411.99 928.49,399.56 " fill="none" id="TeamLosingDeficit-to-TeamExtendingDeficit" style="stroke:#181818;stroke-width:1.0;"/><polygon fill="#181818" points="924.69,396.14,928.6847,405.1424,928.3994,399.4927,934.049,399.2074,924.69,396.14" style="stroke:#181818;stroke-width:1.0;"/><text fill="#000000" font-family="sans-serif" font-size="13" lengthAdjust="spacing" textLength="100" x="946.51" y="439.0669">TeamConceded</text></g><!--MD5=[f3d1d78a2cc54c6b6edd3ba636a00444]
link TeamExtendingDeficit to TeamExtendingDeficit--><g id="link_TeamExtendingDeficit_TeamExtendingDeficit"><path d="M973.07,359.6 C993.18,360.54 1008.01,364.34 1008.01,371 C1008.01,377.09 995.62,380.78 978.13,382.09 " fill="none" id="TeamExtendingDeficit-to-TeamExtendingDeficit" style="stroke:#181818;stroke-width:1.0;"/><polygon fill="#181818" points="973.07,382.4,982.294,385.8522,978.061,382.0997,981.8135,377.8667,973.07,382.4" style="stroke:#181818;stroke-width:1.0;"/><text fill="#000000" font-family="sans-serif" font-size="13" lengthAdjust="spacing" textLength="100" x="1014.01" y="375.5669">TeamConceded</text></g><!--MD5=[503a57f4df594d80217d5c9f80f9fdc3]
link TeamExtendingDeficit to Finished--><g id="link_TeamExtendingDeficit_Finished"><path d="M973.02,385.16 C1001.85,393.08 1032.52,405.75 1055.51,426 C1096.53,462.12 1112.8,505.26 1077.51,547 C1023.43,610.97 760.05,623.16 653.94,625.47 " fill="none" id="TeamExtendingDeficit-to-Finished" style="stroke:#181818;stroke-width:1.0;"/><polygon fill="#181818" points="648.7,625.58,657.7891,629.3733,653.6987,625.4657,657.6062,621.3754,648.7,625.58" style="stroke:#181818;stroke-width:1.0;"/><text fill="#000000" font-family="sans-serif" font-size="13" lengthAdjust="spacing" textLength="83" x="1097.51" y="502.5669">Match Ended</text></g><!--MD5=[0ff1e9ac57151c08d999f23e57675772]
link TeamLosingDeficit to Drawing--><g id="link_TeamLosingDeficit_Drawing"><path d="M814.03,472.99 C791.92,464.01 766.92,453.44 744.51,443 C712.79,428.22 677.8,409.91 651.26,395.58 " fill="none" id="TeamLosingDeficit-to-Drawing" style="stroke:#181818;stroke-width:1.0;"/><polygon fill="#181818" points="646.74,393.14,652.7346,400.9544,651.1322,395.5292,656.5574,393.9269,646.74,393.14" style="stroke:#181818;stroke-width:1.0;"/><text fill="#000000" font-family="sans-serif" font-size="13" lengthAdjust="spacing" textLength="100" x="745.51" y="439.0669">TeamConceded</text></g><!--MD5=[9fb89ab145844368cfc2e057c6de0838]
link TeamLosingDeficit to TeamLosingDeficit--><g id="link_TeamLosingDeficit_TeamLosingDeficit"><path d="M949.04,486.46 C968.9,487.07 984.01,490.92 984.01,498 C984.01,504.48 971.39,508.25 954.05,509.31 " fill="none" id="TeamLosingDeficit-to-TeamLosingDeficit" style="stroke:#181818;stroke-width:1.0;"/><polygon fill="#181818" points="949.04,509.54,958.203,513.151,954.0354,509.3259,957.8605,505.1583,949.04,509.54" style="stroke:#181818;stroke-width:1.0;"/><text fill="#000000" font-family="sans-serif" font-size="13" lengthAdjust="spacing" textLength="81" x="990.01" y="502.5669">TeamScored</text></g><!--MD5=[5f6ad79bf1b4073e2aee234aa7a20a47]
link TeamLosingDeficit to Finished--><g id="link_TeamLosingDeficit_Finished"><path d="M825.16,523.04 C775.65,546.68 700.83,582.4 653.6,604.95 " fill="none" id="TeamLosingDeficit-to-Finished" style="stroke:#181818;stroke-width:1.0;"/><polygon fill="#181818" points="648.83,607.23,658.6751,606.9587,653.3414,605.0742,655.2259,599.7405,648.83,607.23" style="stroke:#181818;stroke-width:1.0;"/><text fill="#000000" font-family="sans-serif" font-size="13" lengthAdjust="spacing" textLength="79" x="750.51" y="568.0669">MatchEnded</text></g><!--MD5=[f3edc34042f787149cb4b2f443172939]
link Finished to *end--><g id="link_Finished_*end"><path d="M609.51,652.21 C609.51,669.84 609.51,693.13 609.51,707.84 " fill="none" id="Finished-to-*end" style="stroke:#181818;stroke-width:1.0;"/><polygon fill="#181818" points="609.51,712.84,613.51,703.84,609.51,707.84,605.51,703.84,609.51,712.84" style="stroke:#181818;stroke-width:1.0;"/></g><!--MD5=[35d68212e687a9e433e3910f3c17834f]
@startuml MatchStateMachine
[*] - -> Scheduled
Scheduled - -> In_play
In_play - -> Drawing: MatchStarted

Drawing - -> Finished: MatchEnded

state TeamWinning {
    Drawing - -> TeamLeadByOne: TeamScored
    
    TeamLeadByOne - -> Drawing: TeamConceded
    TeamLeadByOne - -> TeamExtendingLead: TeamScored
    TeamLeadByOne - -> Finished: MatchEnded

    TeamExtendingLead - -> TeamLosingLead: TeamConceded
    TeamExtendingLead - -> TeamExtendingLead: TeamScored
    TeamExtendingLead - -> Finished: MatchEnded

    TeamLosingLead - -> Drawing: TeamConceded
    TeamLosingLead - -> TeamLosingLead: TeamConceded
    TeamLosingLead - -> TeamExtendingLead: TeamScored
    TeamLosingLead - -> Finished: MatchEnded
}

state TeamLosing {
    Drawing - -> TeamDeficitOfOne: TeamConceded
    
    TeamDeficitOfOne - -> Drawing: TeamScored
    TeamDeficitOfOne - -> TeamExtendingDeficit: TeamConceded
    TeamDeficitOfOne - -> Finished: MatchEnded

    TeamExtendingDeficit - -> TeamLosingDeficit: TeamScored
    TeamExtendingDeficit - -> TeamExtendingDeficit: TeamConceded
    TeamExtendingDeficit - -> Finished: Match Ended

    TeamLosingDeficit - -> Drawing: TeamConceded
    TeamLosingDeficit - -> TeamLosingDeficit: TeamScored
    TeamLosingDeficit - -> TeamExtendingDeficit: TeamConceded
    TeamLosingDeficit - -> Finished: MatchEnded
}

Finished - -> [*]
@enduml

PlantUML version 1.2022.2(Sat Mar 05 16:30:19 UTC 2022)
(GPL source distribution)
Java Runtime: OpenJDK Runtime Environment
JVM: OpenJDK 64-Bit Server VM
Default Encoding: UTF-8
Language: en
Country: null
--></g></svg>